<svg xmlns="http://www.w3.org/2000/svg" xmlns:xlink="http://www.w3.org/1999/xlink" width="2245" zoomAndPan="magnify" viewBox="0 0 1683.75 567.000005" height="756" preserveAspectRatio="xMidYMid meet" version="1.0"><defs><g/><clipPath id="85d405417c"><rect x="0" width="1653" y="0" height="290"/></clipPath></defs><g transform="matrix(1, 0, 0, 1, 17, 136)"><g clip-path="url(#85d405417c)"><g fill="#1e90ff" fill-opacity="1"><g transform="translate(1.451806, 216.937596)"><g><path d="M 6.765625 -72.15625 C 6.765625 -86.363281 9.835938 -99.035156 15.984375 -110.171875 C 22.140625 -121.316406 30.71875 -129.992188 41.71875 -136.203125 C 52.71875 -142.421875 65.1875 -145.53125 79.125 -145.53125 C 96.207031 -145.53125 110.828125 -141.019531 122.984375 -132 C 135.148438 -122.988281 143.285156 -110.691406 147.390625 -95.109375 L 108.84375 -95.109375 C 105.976562 -101.117188 101.914062 -105.695312 96.65625 -108.84375 C 91.394531 -111.988281 85.414062 -113.5625 78.71875 -113.5625 C 67.914062 -113.5625 59.164062 -109.800781 52.46875 -102.28125 C 45.78125 -94.769531 42.4375 -84.726562 42.4375 -72.15625 C 42.4375 -59.582031 45.78125 -49.535156 52.46875 -42.015625 C 59.164062 -34.503906 67.914062 -30.75 78.71875 -30.75 C 85.414062 -30.75 91.394531 -32.316406 96.65625 -35.453125 C 101.914062 -38.597656 105.976562 -43.179688 108.84375 -49.203125 L 147.390625 -49.203125 C 143.285156 -33.617188 135.148438 -21.347656 122.984375 -12.390625 C 110.828125 -3.441406 96.207031 1.03125 79.125 1.03125 C 65.1875 1.03125 52.71875 -2.078125 41.71875 -8.296875 C 30.71875 -14.515625 22.140625 -23.160156 15.984375 -34.234375 C 9.835938 -45.304688 6.765625 -57.945312 6.765625 -72.15625 Z M 6.765625 -72.15625 "/></g></g></g><g fill="#1e90ff" fill-opacity="1"><g transform="translate(157.620205, 216.937596)"><g><path d="M 64.78125 1.640625 C 53.570312 1.640625 43.488281 -0.75 34.53125 -5.53125 C 25.582031 -10.3125 18.546875 -17.144531 13.421875 -26.03125 C 8.296875 -34.914062 5.734375 -45.300781 5.734375 -57.1875 C 5.734375 -68.9375 8.328125 -79.285156 13.515625 -88.234375 C 18.710938 -97.191406 25.820312 -104.0625 34.84375 -108.84375 C 43.863281 -113.625 53.976562 -116.015625 65.1875 -116.015625 C 76.394531 -116.015625 86.503906 -113.625 95.515625 -108.84375 C 104.535156 -104.0625 111.640625 -97.191406 116.828125 -88.234375 C 122.023438 -79.285156 124.625 -68.9375 124.625 -57.1875 C 124.625 -45.4375 121.992188 -35.082031 116.734375 -26.125 C 111.472656 -17.175781 104.296875 -10.3125 95.203125 -5.53125 C 86.117188 -0.75 75.976562 1.640625 64.78125 1.640625 Z M 64.78125 -28.703125 C 71.46875 -28.703125 77.171875 -31.160156 81.890625 -36.078125 C 86.609375 -40.992188 88.96875 -48.03125 88.96875 -57.1875 C 88.96875 -66.34375 86.675781 -73.378906 82.09375 -78.296875 C 77.519531 -83.222656 71.882812 -85.6875 65.1875 -85.6875 C 58.351562 -85.6875 52.679688 -83.257812 48.171875 -78.40625 C 43.660156 -73.550781 41.40625 -66.476562 41.40625 -57.1875 C 41.40625 -48.03125 43.625 -40.992188 48.0625 -36.078125 C 52.507812 -31.160156 58.082031 -28.703125 64.78125 -28.703125 Z M 64.78125 -28.703125 "/></g></g></g><g fill="#1e90ff" fill-opacity="1"><g transform="translate(288.170472, 216.937596)"><g><path d="M 158.65625 -115.609375 C 172.863281 -115.609375 184.171875 -111.300781 192.578125 -102.6875 C 200.984375 -94.082031 205.1875 -82.128906 205.1875 -66.828125 L 205.1875 0 L 170.34375 0 L 170.34375 -62.109375 C 170.34375 -69.484375 168.394531 -75.1875 164.5 -79.21875 C 160.601562 -83.257812 155.238281 -85.28125 148.40625 -85.28125 C 141.570312 -85.28125 136.207031 -83.257812 132.3125 -79.21875 C 128.414062 -75.1875 126.46875 -69.484375 126.46875 -62.109375 L 126.46875 0 L 91.625 0 L 91.625 -62.109375 C 91.625 -69.484375 89.675781 -75.1875 85.78125 -79.21875 C 81.882812 -83.257812 76.519531 -85.28125 69.6875 -85.28125 C 62.863281 -85.28125 57.503906 -83.257812 53.609375 -79.21875 C 49.710938 -75.1875 47.765625 -69.484375 47.765625 -62.109375 L 47.765625 0 L 12.703125 0 L 12.703125 -114.375 L 47.765625 -114.375 L 47.765625 -100.03125 C 51.316406 -104.8125 55.960938 -108.601562 61.703125 -111.40625 C 67.441406 -114.207031 73.929688 -115.609375 81.171875 -115.609375 C 89.785156 -115.609375 97.472656 -113.765625 104.234375 -110.078125 C 110.992188 -106.390625 116.289062 -101.128906 120.125 -94.296875 C 124.082031 -100.578125 129.476562 -105.695312 136.3125 -109.65625 C 143.144531 -113.625 150.59375 -115.609375 158.65625 -115.609375 Z M 158.65625 -115.609375 "/></g></g></g><g fill="#1e90ff" fill-opacity="1"><g transform="translate(505.207707, 216.937596)"><g><path d="M 158.65625 -115.609375 C 172.863281 -115.609375 184.171875 -111.300781 192.578125 -102.6875 C 200.984375 -94.082031 205.1875 -82.128906 205.1875 -66.828125 L 205.1875 0 L 170.34375 0 L 170.34375 -62.109375 C 170.34375 -69.484375 168.394531 -75.1875 164.5 -79.21875 C 160.601562 -83.257812 155.238281 -85.28125 148.40625 -85.28125 C 141.570312 -85.28125 136.207031 -83.257812 132.3125 -79.21875 C 128.414062 -75.1875 126.46875 -69.484375 126.46875 -62.109375 L 126.46875 0 L 91.625 0 L 91.625 -62.109375 C 91.625 -69.484375 89.675781 -75.1875 85.78125 -79.21875 C 81.882812 -83.257812 76.519531 -85.28125 69.6875 -85.28125 C 62.863281 -85.28125 57.503906 -83.257812 53.609375 -79.21875 C 49.710938 -75.1875 47.765625 -69.484375 47.765625 -62.109375 L 47.765625 0 L 12.703125 0 L 12.703125 -114.375 L 47.765625 -114.375 L 47.765625 -100.03125 C 51.316406 -104.8125 55.960938 -108.601562 61.703125 -111.40625 C 67.441406 -114.207031 73.929688 -115.609375 81.171875 -115.609375 C 89.785156 -115.609375 97.472656 -113.765625 104.234375 -110.078125 C 110.992188 -106.390625 116.289062 -101.128906 120.125 -94.296875 C 124.082031 -100.578125 129.476562 -105.695312 136.3125 -109.65625 C 143.144531 -113.625 150.59375 -115.609375 158.65625 -115.609375 Z M 158.65625 -115.609375 "/></g></g></g><g fill="#1e90ff" fill-opacity="1"><g transform="translate(722.244942, 216.937596)"><g><path d="M 125.65625 -114.375 L 125.65625 0 L 90.609375 0 L 90.609375 -15.578125 C 87.054688 -10.523438 82.238281 -6.457031 76.15625 -3.375 C 70.070312 -0.300781 63.335938 1.234375 55.953125 1.234375 C 47.210938 1.234375 39.492188 -0.710938 32.796875 -4.609375 C 26.097656 -8.503906 20.90625 -14.140625 17.21875 -21.515625 C 13.53125 -28.898438 11.6875 -37.582031 11.6875 -47.5625 L 11.6875 -114.375 L 46.53125 -114.375 L 46.53125 -52.265625 C 46.53125 -44.617188 48.507812 -38.675781 52.46875 -34.4375 C 56.4375 -30.195312 61.769531 -28.078125 68.46875 -28.078125 C 75.300781 -28.078125 80.695312 -30.195312 84.65625 -34.4375 C 88.625 -38.675781 90.609375 -44.617188 90.609375 -52.265625 L 90.609375 -114.375 Z M 125.65625 -114.375 "/></g></g></g><g fill="#1e90ff" fill-opacity="1"><g transform="translate(860.378168, 216.937596)"><g><path d="M 82.40625 -115.609375 C 95.800781 -115.609375 106.492188 -111.269531 114.484375 -102.59375 C 122.472656 -93.914062 126.46875 -81.992188 126.46875 -66.828125 L 126.46875 0 L 91.625 0 L 91.625 -62.109375 C 91.625 -69.765625 89.640625 -75.707031 85.671875 -79.9375 C 81.710938 -84.175781 76.382812 -86.296875 69.6875 -86.296875 C 63 -86.296875 57.671875 -84.175781 53.703125 -79.9375 C 49.742188 -75.707031 47.765625 -69.765625 47.765625 -62.109375 L 47.765625 0 L 12.703125 0 L 12.703125 -114.375 L 47.765625 -114.375 L 47.765625 -99.21875 C 51.316406 -104.269531 56.097656 -108.265625 62.109375 -111.203125 C 68.117188 -114.140625 74.882812 -115.609375 82.40625 -115.609375 Z M 82.40625 -115.609375 "/></g></g></g><g fill="#1e90ff" fill-opacity="1"><g transform="translate(998.511394, 216.937596)"><g><path d="M 30.34375 -126.265625 C 24.1875 -126.265625 19.160156 -128.078125 15.265625 -131.703125 C 11.367188 -135.328125 9.421875 -139.800781 9.421875 -145.125 C 9.421875 -150.59375 11.367188 -155.132812 15.265625 -158.75 C 19.160156 -162.375 24.1875 -164.1875 30.34375 -164.1875 C 36.351562 -164.1875 41.304688 -162.375 45.203125 -158.75 C 49.097656 -155.132812 51.046875 -150.59375 51.046875 -145.125 C 51.046875 -139.800781 49.097656 -135.328125 45.203125 -131.703125 C 41.304688 -128.078125 36.351562 -126.265625 30.34375 -126.265625 Z M 47.765625 -114.375 L 47.765625 0 L 12.703125 0 L 12.703125 -114.375 Z M 47.765625 -114.375 "/></g></g></g><g fill="#1e90ff" fill-opacity="1"><g transform="translate(1058.970309, 216.937596)"><g><path d="M 47.765625 -27.0625 L 93.671875 -27.0625 L 93.671875 0 L 12.703125 0 L 12.703125 -143.90625 L 47.765625 -143.90625 Z M 47.765625 -27.0625 "/></g></g></g><g fill="#1e90ff" fill-opacity="1"><g transform="translate(1156.72927, 216.937596)"><g><path d="M 120.53125 -59.03125 C 120.53125 -55.75 120.328125 -52.332031 119.921875 -48.78125 L 40.59375 -48.78125 C 41.132812 -41.675781 43.421875 -36.242188 47.453125 -32.484375 C 51.484375 -28.734375 56.4375 -26.859375 62.3125 -26.859375 C 71.0625 -26.859375 77.144531 -30.546875 80.5625 -37.921875 L 117.859375 -37.921875 C 115.953125 -30.398438 112.503906 -23.632812 107.515625 -17.625 C 102.523438 -11.613281 96.269531 -6.898438 88.75 -3.484375 C 81.238281 -0.0664062 72.835938 1.640625 63.546875 1.640625 C 52.335938 1.640625 42.359375 -0.75 33.609375 -5.53125 C 24.867188 -10.3125 18.035156 -17.144531 13.109375 -26.03125 C 8.191406 -34.914062 5.734375 -45.300781 5.734375 -57.1875 C 5.734375 -69.082031 8.160156 -79.46875 13.015625 -88.34375 C 17.867188 -97.226562 24.664062 -104.0625 33.40625 -108.84375 C 42.15625 -113.625 52.203125 -116.015625 63.546875 -116.015625 C 74.617188 -116.015625 84.457031 -113.691406 93.0625 -109.046875 C 101.675781 -104.398438 108.40625 -97.769531 113.25 -89.15625 C 118.101562 -80.550781 120.53125 -70.507812 120.53125 -59.03125 Z M 84.65625 -68.265625 C 84.65625 -74.273438 82.601562 -79.054688 78.5 -82.609375 C 74.40625 -86.160156 69.285156 -87.9375 63.140625 -87.9375 C 57.265625 -87.9375 52.3125 -86.226562 48.28125 -82.8125 C 44.25 -79.394531 41.753906 -74.546875 40.796875 -68.265625 Z M 84.65625 -68.265625 "/></g></g></g><g fill="#1e90ff" fill-opacity="1"><g transform="translate(1282.975686, 216.937596)"><g><path d="M 5.734375 -57.390625 C 5.734375 -69.148438 7.953125 -79.46875 12.390625 -88.34375 C 16.835938 -97.226562 22.882812 -104.0625 30.53125 -108.84375 C 38.1875 -113.625 46.734375 -116.015625 56.171875 -116.015625 C 64.234375 -116.015625 71.300781 -114.375 77.375 -111.09375 C 83.457031 -107.820312 88.140625 -103.519531 91.421875 -98.1875 L 91.421875 -114.375 L 126.46875 -114.375 L 126.46875 0 L 91.421875 0 L 91.421875 -16.1875 C 88.003906 -10.863281 83.253906 -6.5625 77.171875 -3.28125 C 71.097656 0 64.023438 1.640625 55.953125 1.640625 C 46.660156 1.640625 38.1875 -0.78125 30.53125 -5.625 C 22.882812 -10.476562 16.835938 -17.378906 12.390625 -26.328125 C 7.953125 -35.285156 5.734375 -45.640625 5.734375 -57.390625 Z M 91.421875 -57.1875 C 91.421875 -65.9375 88.992188 -72.835938 84.140625 -77.890625 C 79.296875 -82.953125 73.390625 -85.484375 66.421875 -85.484375 C 59.441406 -85.484375 53.523438 -82.988281 48.671875 -78 C 43.828125 -73.007812 41.40625 -66.140625 41.40625 -57.390625 C 41.40625 -48.648438 43.828125 -41.71875 48.671875 -36.59375 C 53.523438 -31.46875 59.441406 -28.90625 66.421875 -28.90625 C 73.390625 -28.90625 79.296875 -31.429688 84.140625 -36.484375 C 88.992188 -41.546875 91.421875 -48.445312 91.421875 -57.1875 Z M 91.421875 -57.1875 "/></g></g></g><g fill="#1e90ff" fill-opacity="1"><g transform="translate(1422.133652, 216.937596)"><g><path d="M 47.765625 -95.3125 C 51.859375 -101.601562 56.976562 -106.554688 63.125 -110.171875 C 69.28125 -113.796875 76.117188 -115.609375 83.640625 -115.609375 L 83.640625 -78.515625 L 74 -78.515625 C 65.25 -78.515625 58.6875 -76.632812 54.3125 -72.875 C 49.945312 -69.113281 47.765625 -62.519531 47.765625 -53.09375 L 47.765625 0 L 12.703125 0 L 12.703125 -114.375 L 47.765625 -114.375 Z M 47.765625 -95.3125 "/></g></g></g><g fill="#1e90ff" fill-opacity="1"><g transform="translate(1509.850323, 216.937596)"><g><path d="M 82.40625 -115.609375 C 95.800781 -115.609375 106.492188 -111.269531 114.484375 -102.59375 C 122.472656 -93.914062 126.46875 -81.992188 126.46875 -66.828125 L 126.46875 0 L 91.625 0 L 91.625 -62.109375 C 91.625 -69.765625 89.640625 -75.707031 85.671875 -79.9375 C 81.710938 -84.175781 76.382812 -86.296875 69.6875 -86.296875 C 63 -86.296875 57.671875 -84.175781 53.703125 -79.9375 C 49.742188 -75.707031 47.765625 -69.765625 47.765625 -62.109375 L 47.765625 0 L 12.703125 0 L 12.703125 -114.375 L 47.765625 -114.375 L 47.765625 -99.21875 C 51.316406 -104.269531 56.097656 -108.265625 62.109375 -111.203125 C 68.117188 -114.140625 74.882812 -115.609375 82.40625 -115.609375 Z M 82.40625 -115.609375 "/></g></g></g></g></g></svg>