<svg xmlns="http://www.w3.org/2000/svg" xmlns:xlink="http://www.w3.org/1999/xlink" width="500" zoomAndPan="magnify" viewBox="0 0 375 374.999991" height="500" preserveAspectRatio="xMidYMid meet" version="1.0"><defs><g/><clipPath id="08a2289d3f"><path d="M 62 6.765625 L 155 6.765625 L 155 259.457031 L 62 259.457031 Z M 62 6.765625 " clip-rule="nonzero"/></clipPath><clipPath id="98338ad6ce"><path d="M 0.71875 58 L 117 58 L 117 258 L 0.71875 258 Z M 0.71875 58 " clip-rule="nonzero"/></clipPath><clipPath id="134c53170b"><path d="M 187 81 L 325 81 L 325 160 L 187 160 Z M 187 81 " clip-rule="nonzero"/></clipPath><clipPath id="870b33476c"><path d="M 375.710938 116.429688 L 211.578125 302.929688 L 74.257812 182.078125 L 238.390625 -4.421875 Z M 375.710938 116.429688 " clip-rule="nonzero"/></clipPath><clipPath id="c88f8521bb"><path d="M 375.710938 116.429688 L 211.578125 302.929688 L 74.257812 182.078125 L 238.390625 -4.421875 Z M 375.710938 116.429688 " clip-rule="nonzero"/></clipPath><clipPath id="12f0b133d8"><path d="M 160 35 L 307 35 L 307 103 L 160 103 Z M 160 35 " clip-rule="nonzero"/></clipPath><clipPath id="da2472600d"><path d="M 375.710938 116.429688 L 211.578125 302.929688 L 74.257812 182.078125 L 238.390625 -4.421875 Z M 375.710938 116.429688 " clip-rule="nonzero"/></clipPath><clipPath id="2267b98718"><path d="M 375.710938 116.429688 L 211.578125 302.929688 L 74.257812 182.078125 L 238.390625 -4.421875 Z M 375.710938 116.429688 " clip-rule="nonzero"/></clipPath><clipPath id="36d1ad5fe3"><path d="M 161 123 L 239 123 L 239 261 L 161 261 Z M 161 123 " clip-rule="nonzero"/></clipPath><clipPath id="267e510dc3"><path d="M 375.710938 116.429688 L 211.578125 302.929688 L 74.257812 182.078125 L 238.390625 -4.421875 Z M 375.710938 116.429688 " clip-rule="nonzero"/></clipPath><clipPath id="61c2a03e32"><path d="M 375.710938 116.429688 L 211.578125 302.929688 L 74.257812 182.078125 L 238.390625 -4.421875 Z M 375.710938 116.429688 " clip-rule="nonzero"/></clipPath><clipPath id="e026a4e7a4"><path d="M 218 95 L 286 95 L 286 243 L 218 243 Z M 218 95 " clip-rule="nonzero"/></clipPath><clipPath id="5426d6315a"><path d="M 375.710938 116.429688 L 211.578125 302.929688 L 74.257812 182.078125 L 238.390625 -4.421875 Z M 375.710938 116.429688 " clip-rule="nonzero"/></clipPath><clipPath id="6c65a4d50d"><path d="M 375.710938 116.429688 L 211.578125 302.929688 L 74.257812 182.078125 L 238.390625 -4.421875 Z M 375.710938 116.429688 " clip-rule="nonzero"/></clipPath><clipPath id="59dd17b2f7"><rect x="0" width="345" y="0" height="304"/></clipPath></defs><g transform="matrix(1, 0, 0, 1, 30, 38)"><g clip-path="url(#59dd17b2f7)"><g clip-path="url(#08a2289d3f)"><path fill="#1e90ff" d="M 154.484375 259.675781 C 147.441406 251.925781 138.789062 243.566406 128.308594 235.460938 C 104.0625 216.714844 79.851562 206.875 62.132812 201.539062 C 62.132812 135.78125 62.132812 69.992188 62.132812 4.234375 C 74.898438 9.441406 84.960938 14.78125 92.003906 18.832031 C 95.21875 20.695312 128.40625 40.148438 144.160156 63.71875 C 149.371094 71.5 151.429688 77.902344 152.199219 80.503906 C 154.03125 86.839844 154.449219 92.339844 154.484375 96.164062 C 154.484375 150.667969 154.484375 205.171875 154.484375 259.675781 Z M 154.484375 259.675781 " fill-opacity="1" fill-rule="nonzero"/></g><path fill="#1e90ff" d="M 31.746094 31.855469 L 50.8125 45.519531 L 50.8125 209.03125 C 70.460938 214.625 93.675781 223.789062 117.246094 239.289062 C 123.195312 243.210938 128.726562 247.230469 133.808594 251.25 C 124.0625 246.683594 112.90625 242.214844 100.398438 238.355469 C 74.160156 230.316406 50.460938 227.679688 31.746094 227.167969 C 31.746094 162.082031 31.746094 96.96875 31.746094 31.855469 Z M 31.746094 31.855469 " fill-opacity="1" fill-rule="nonzero"/><g clip-path="url(#98338ad6ce)"><path fill="#1e90ff" d="M 0.84375 257.585938 L 0.84375 58.285156 L 20.585938 71.695312 L 20.585938 238.613281 C 39.65625 237.261719 63.738281 237.746094 90.558594 243.757812 C 100.074219 245.882812 108.855469 248.484375 116.859375 251.25 C 99.980469 249.257812 79.59375 248.164062 56.601562 249.546875 C 35.28125 250.832031 16.535156 253.984375 0.84375 257.585938 Z M 0.84375 257.585938 " fill-opacity="1" fill-rule="nonzero"/></g><g clip-path="url(#134c53170b)"><g clip-path="url(#870b33476c)"><g clip-path="url(#c88f8521bb)"><path fill="#1e90ff" d="M 258.011719 125.339844 C 278.769531 168.519531 324.410156 157.949219 324.410156 157.949219 C 300.316406 152.019531 285.21875 138.105469 282.082031 127.890625 C 282.082031 127.890625 283.144531 127.253906 287.730469 127.699219 C 299.960938 128.882812 305.757812 118.230469 303.601562 110.421875 C 301.089844 101.320312 288.289062 96.300781 279.777344 105.191406 C 274.113281 111.113281 270.066406 106.492188 267.808594 104.273438 C 248.835938 85.625 215.335938 73.984375 187.890625 87.117188 C 187.890625 87.117188 234.675781 76.785156 258.011719 125.339844 " fill-opacity="1" fill-rule="nonzero"/></g></g></g><g clip-path="url(#12f0b133d8)"><g clip-path="url(#da2472600d)"><g clip-path="url(#2267b98718)"><path fill="#1e90ff" d="M 236.863281 79.730469 C 282.078125 95.585938 306.878906 55.839844 306.878906 55.839844 C 285.640625 68.683594 265.128906 69.523438 255.6875 64.515625 C 255.6875 64.515625 255.988281 63.316406 259.546875 60.386719 C 269.03125 52.574219 265.601562 40.945312 258.554688 36.949219 C 250.339844 32.289062 237.742188 37.789062 238.011719 50.09375 C 238.191406 58.289062 232.0625 57.882812 228.894531 57.910156 C 202.292969 58.140625 170.375 73.597656 160.253906 102.289062 C 160.253906 102.289062 186.03125 61.902344 236.863281 79.730469 " fill-opacity="1" fill-rule="nonzero"/></g></g></g><g clip-path="url(#36d1ad5fe3)"><g clip-path="url(#267e510dc3)"><g clip-path="url(#61c2a03e32)"><path fill="#1e90ff" d="M 195.109375 193.691406 C 151.929688 214.449219 162.496094 260.089844 162.496094 260.089844 C 168.429688 235.992188 182.34375 220.894531 192.558594 217.757812 C 192.558594 217.757812 193.191406 218.820312 192.75 223.40625 C 191.566406 235.636719 202.21875 241.4375 210.027344 239.277344 C 219.125 236.765625 224.148438 223.96875 215.257812 215.457031 C 209.335938 209.789062 213.957031 205.742188 216.175781 203.484375 C 234.824219 184.511719 246.460938 151.011719 233.332031 123.566406 C 233.332031 123.566406 243.660156 170.351562 195.109375 193.691406 " fill-opacity="1" fill-rule="nonzero"/></g></g></g><g clip-path="url(#e026a4e7a4)"><g clip-path="url(#5426d6315a)"><g clip-path="url(#6c65a4d50d)"><path fill="#1e90ff" d="M 240.71875 172.542969 C 224.859375 217.753906 264.609375 242.554688 264.609375 242.554688 C 251.765625 221.320312 250.925781 200.808594 255.933594 191.363281 C 255.933594 191.363281 257.132812 191.667969 260.0625 195.222656 C 267.871094 204.710938 279.503906 201.277344 283.5 194.230469 C 288.160156 186.019531 282.660156 173.417969 270.355469 173.6875 C 262.160156 173.867188 262.566406 167.738281 262.539062 164.570312 C 262.308594 137.96875 246.851562 106.050781 218.160156 95.929688 C 218.160156 95.929688 258.546875 121.707031 240.71875 172.542969 " fill-opacity="1" fill-rule="nonzero"/></g></g></g></g></g><g fill="#ffffff" fill-opacity="1"><g transform="translate(130.606482, 145.000399)"><g><path d="M 8.5 -3.75 L 20.859375 -3.75 L 20.859375 0 L 3.890625 0 L 3.890625 -35.28125 L 8.5 -35.28125 Z M 8.5 -3.75 "/></g></g></g><g fill="#ffffff" fill-opacity="1"><g transform="translate(119.743201, 187.750396)"><g><path d="M 39.6875 -35.03125 L 39.6875 0 L 35.078125 0 L 35.078125 -26.125 L 23.4375 0 L 20.203125 0 L 8.5 -26.171875 L 8.5 0 L 3.890625 0 L 3.890625 -35.03125 L 8.859375 -35.03125 L 21.8125 -6.078125 L 34.78125 -35.03125 Z M 39.6875 -35.03125 "/></g></g></g><g fill="#ffffff" fill-opacity="1"><g transform="translate(126.680701, 230.500394)"><g><path d="M 15.09375 0.359375 C 12.757812 0.359375 10.671875 -0.0507812 8.828125 -0.875 C 6.992188 -1.707031 5.550781 -2.859375 4.5 -4.328125 C 3.457031 -5.796875 2.921875 -7.492188 2.890625 -9.421875 L 7.796875 -9.421875 C 7.960938 -7.765625 8.644531 -6.367188 9.84375 -5.234375 C 11.039062 -4.109375 12.789062 -3.546875 15.09375 -3.546875 C 17.28125 -3.546875 19.003906 -4.09375 20.265625 -5.1875 C 21.535156 -6.28125 22.171875 -7.691406 22.171875 -9.421875 C 22.171875 -10.765625 21.800781 -11.859375 21.0625 -12.703125 C 20.320312 -13.546875 19.394531 -14.1875 18.28125 -14.625 C 17.164062 -15.0625 15.660156 -15.535156 13.765625 -16.046875 C 11.441406 -16.648438 9.578125 -17.253906 8.171875 -17.859375 C 6.773438 -18.472656 5.578125 -19.429688 4.578125 -20.734375 C 3.585938 -22.035156 3.09375 -23.78125 3.09375 -25.96875 C 3.09375 -27.894531 3.582031 -29.597656 4.5625 -31.078125 C 5.539062 -32.566406 6.914062 -33.710938 8.6875 -34.515625 C 10.457031 -35.328125 12.488281 -35.734375 14.78125 -35.734375 C 18.09375 -35.734375 20.800781 -34.90625 22.90625 -33.25 C 25.019531 -31.601562 26.210938 -29.410156 26.484375 -26.671875 L 21.421875 -26.671875 C 21.242188 -28.023438 20.53125 -29.21875 19.28125 -30.25 C 18.039062 -31.28125 16.390625 -31.796875 14.328125 -31.796875 C 12.398438 -31.796875 10.828125 -31.296875 9.609375 -30.296875 C 8.398438 -29.304688 7.796875 -27.914062 7.796875 -26.125 C 7.796875 -24.84375 8.15625 -23.796875 8.875 -22.984375 C 9.601562 -22.171875 10.5 -21.550781 11.5625 -21.125 C 12.625 -20.707031 14.117188 -20.226562 16.046875 -19.6875 C 18.378906 -19.050781 20.253906 -18.421875 21.671875 -17.796875 C 23.085938 -17.171875 24.300781 -16.207031 25.3125 -14.90625 C 26.320312 -13.601562 26.828125 -11.84375 26.828125 -9.625 C 26.828125 -7.894531 26.367188 -6.269531 25.453125 -4.75 C 24.546875 -3.238281 23.195312 -2.007812 21.40625 -1.0625 C 19.625 -0.113281 17.519531 0.359375 15.09375 0.359375 Z M 15.09375 0.359375 "/></g></g></g></svg>